<svg width="14" height="14" viewBox="0 0 14 14" fill="none" xmlns="http://www.w3.org/2000/svg">
<rect width="14" height="14" fill="#E5E5E5"/>
<g id="Table Blog #1">
<rect width="1280" height="1194" transform="translate(-105 -589)" fill="white"/>
<g id="1" clip-path="url(#clip0_0_1)">
<g id="Bg" clip-path="url(#clip1_0_1)">
<rect id="Rectangle " x="-25" y="-401" width="360" height="440" rx="8" fill="#F7F8F9"/>
</g>
<g id="Time" clip-path="url(#clip2_0_1)">
<g id="Clock" clip-path="url(#clip3_0_1)">
<path id="Shape" fill-rule="evenodd" clip-rule="evenodd" d="M7 14C3.14 14 0 10.86 0 7C0 3.14 3.14 0 7 0C10.86 0 14 3.14 14 7C14 10.86 10.86 14 7 14ZM7 1.167C3.783 1.167 1.167 3.783 1.167 7C1.167 10.217 3.783 12.833 7 12.833C10.217 12.833 12.833 10.217 12.833 7C12.833 3.783 10.217 1.167 7 1.167ZM9.333 9.917C9.184 9.917 9.035 9.86 8.921 9.746L6.588 7.413C6.534 7.359 6.491 7.294 6.462 7.223C6.432 7.152 6.417 7.076 6.417 7V2.917C6.417 2.595 6.678 2.333 7 2.333C7.322 2.333 7.583 2.595 7.583 2.917V6.759L9.746 8.921C9.974 9.149 9.974 9.518 9.746 9.746C9.632 9.86 9.483 9.917 9.333 9.917Z" fill="#9FA3A7"/>
</g>
</g>
</g>
</g>
<defs>
<clipPath id="clip0_0_1">
<rect width="360" height="440" fill="white" transform="translate(-25 -401)"/>
</clipPath>
<clipPath id="clip1_0_1">
<rect width="360" height="440" fill="white" transform="translate(-25 -401)"/>
</clipPath>
<clipPath id="clip2_0_1">
<rect width="84" height="14" fill="white"/>
</clipPath>
<clipPath id="clip3_0_1">
<rect width="14" height="14" fill="white"/>
</clipPath>
</defs>
</svg>
